<svg xmlns:dc="http://purl.org/dc/elements/1.1/" xmlns:cc="http://creativecommons.org/ns#" xmlns:rdf="http://www.w3.org/1999/02/22-rdf-syntax-ns#" xmlns:svg="http://www.w3.org/2000/svg" xmlns="http://www.w3.org/2000/svg" xmlns:xlink="http://www.w3.org/1999/xlink" id="svg706378" viewBox="0 0 1024 768" height="768px" width="1024px" version="1.1">
  <metadata id="metadata706384">
    <rdf:rdf>
      <cc:work rdf:about="">
        <dc:format>image/svg+xml</dc:format>
        <dc:type rdf:resource="http://purl.org/dc/dcmitype/StillImage"></dc:type>
      </cc:work>
    </rdf:rdf>
  </metadata>
  <defs id="defs706382"></defs>
  <linearGradient spreadMethod="pad" y2="30%" x2="-10%" y1="120%" x1="30%" id="3d_gradient2-logo-7516358e-5852-4ca8-af91-6a67f15cfd38">
    <stop id="stop706359" stop-opacity="1" stop-color="#ffffff" offset="0%"></stop>
    <stop id="stop706361" stop-opacity="1" stop-color="#000000" offset="100%"></stop>
  </linearGradient>
  <linearGradient gradientTransform="rotate(-30)" spreadMethod="pad" y2="30%" x2="-10%" y1="120%" x1="30%" id="3d_gradient3-logo-7516358e-5852-4ca8-af91-6a67f15cfd38">
    <stop id="stop706364" stop-opacity="1" stop-color="#ffffff" offset="0%"></stop>
    <stop id="stop706366" stop-opacity="1" stop-color="#cccccc" offset="50%"></stop>
    <stop id="stop706368" stop-opacity="1" stop-color="#000000" offset="100%"></stop>
  </linearGradient>
  <g id="logo-group">
    <image xlink:href="" id="container" x="272" y="144" width="480" height="480" transform="translate(0 0)" style="display: none;"></image>
    <g id="logo-center" transform="translate(0 0)">
      <image xlink:href="" id="icon_container" x="0" y="0" style="display: none;"></image>
      <g id="slogan" style="font-style:normal;font-weight:400;font-size:32px;line-height:1;font-family:Montserrat;font-variant-ligatures:none;text-align:center;text-anchor:middle" transform="translate(0 0)"></g>
      <g id="title" style="font-style:normal;font-weight:500;font-size:72px;line-height:1;font-family:'Raleway Medium Alt1';font-variant-ligatures:none;text-align:center;text-anchor:middle" transform="translate(0 0)">
        <path id="path706387" style="font-style:normal;font-weight:500;font-size:72px;line-height:1;font-family:'Raleway Medium Alt1';font-variant-ligatures:none;text-align:center;text-anchor:middle" d="m 346.27625,0 h 6.48 v -28.728 l -6.48,-8.424 z m 36.72,-51.048 v 39.744 l -31.68,-39.816 h -5.04 v 3.888 l 6.48,8.208 31.248,39.024 h 5.472 v -51.048 z" stroke-width="0" stroke-linejoin="miter" stroke-miterlimit="2" fill="#cf3a00" stroke="#cf3a00" transform="translate(0 331.98400000000004) translate(159.27205625 2.8760000000000048) scale(1.95) translate(-346.27625 51.12)"></path>
        <path id="path706389" style="font-style:normal;font-weight:500;font-size:72px;line-height:1;font-family:'Raleway Medium Alt1';font-variant-ligatures:none;text-align:center;text-anchor:middle" d="m 416.60338,0.72 c 1.87199,0 3.67199,-0.216 5.39999,-0.72 1.72801,-0.432 3.24001,-1.08 4.68,-1.944 1.44,-0.864 2.664,-1.872 3.744,-3.024 1.08001,-1.152 1.944,-2.376 2.59201,-3.816 l -5.47201,-1.512 c -0.432,1.008 -1.008,1.872 -1.728,2.592 -0.72,0.792 -1.584,1.44 -2.52,1.944 -1.00799,0.576 -2.016,1.008 -3.096,1.296 -1.152,0.288 -2.23199,0.432 -3.384,0.432 -1.656,0 -3.23999,-0.288 -4.68,-0.936 -1.44,-0.576 -2.736,-1.44 -3.888,-2.592 -1.152,-1.08 -2.088,-2.376 -2.808,-3.96 -0.72,-1.512 -1.15199,-3.24 -1.296,-5.112 h 31.176 c 0,-0.216 0.072,-0.576 0.072,-1.008 0,-0.432 0.072,-0.864 0.072,-1.44 0,-2.448 -0.504,-4.896 -1.368,-7.2 -0.864,-2.304 -2.16,-4.392 -3.744,-6.12 -1.65599,-1.728 -3.672,-3.168 -5.976,-4.248 -2.304,-1.008 -4.89599,-1.584 -7.704,-1.584 -2.88,0 -5.472,0.576 -7.77599,1.584 -2.37601,1.008 -4.392,2.448 -6.12,4.176 -1.72801,1.8 -3.024,3.888 -3.96001,6.192 -0.936,2.376 -1.368,4.896 -1.368,7.488 0,2.664 0.432,5.184 1.368,7.56 0.93601,2.376 2.232,4.464 3.96001,6.192 1.656,1.8 3.67199,3.24 6.048,4.248 2.30399,1.008 4.89599,1.512 7.776,1.512 z m 12.88799,-22.032 h -25.488 c 0.144,-1.728 0.50401,-3.384 1.224,-4.896 0.72001,-1.44 1.584,-2.736 2.736,-3.816 1.152,-1.08 2.44801,-1.944 3.96001,-2.52 1.44,-0.576 3.024,-0.936 4.75199,-0.936 1.656,0 3.24,0.36 4.752,0.936 1.44,0.576 2.736,1.44 3.88801,2.448 1.15199,1.08 2.08799,2.376 2.80799,3.888 0.72,1.512 1.224,3.168 1.368,4.896 z" stroke-width="0" stroke-linejoin="miter" stroke-miterlimit="2" fill="#cf3a00" stroke="#cf3a00" transform="translate(0 331.98400000000004) translate(264.91354025 28.00760000000001) scale(1.95) translate(-397.45137 38.232)"></path>
        <path id="path706391" style="font-style:normal;font-weight:500;font-size:72px;line-height:1;font-family:'Raleway Medium Alt1';font-variant-ligatures:none;text-align:center;text-anchor:middle" d="m 458.99675,0.72 c 2.808,0 5.4,-0.504 7.704,-1.584 2.304,-1.008 4.32,-2.448 6.048,-4.248 1.656,-1.728 2.952,-3.816 3.888,-6.192 0.864,-2.304 1.368,-4.824 1.368,-7.416 0,-2.592 -0.504,-5.112 -1.44,-7.488 -0.936,-2.304 -2.232,-4.392 -3.888,-6.192 -1.656,-1.728 -3.672,-3.168 -5.976,-4.248 -2.376,-1.008 -4.968,-1.584 -7.704,-1.584 -2.808,0 -5.4,0.576 -7.704,1.584 -2.304,1.08 -4.32,2.52 -5.976,4.248 -1.656,1.8 -2.952,3.888 -3.888,6.192 -0.936,2.376 -1.368,4.896 -1.368,7.488 0,2.592 0.432,5.112 1.368,7.416 0.864,2.376 2.16,4.464 3.816,6.192 1.656,1.8 3.672,3.24 5.976,4.248 2.304,1.08 4.896,1.584 7.776,1.584 z m -12.456,-19.368 c 0,-1.944 0.288,-3.744 0.936,-5.472 0.648,-1.728 1.512,-3.168 2.664,-4.464 1.152,-1.296 2.448,-2.304 3.96,-3.024 1.512,-0.72 3.168,-1.152 4.896,-1.152 1.728,0 3.312,0.36 4.824,1.08 1.512,0.72 2.88,1.728 4.032,3.024 1.152,1.296 2.016,2.736 2.664,4.464 0.648,1.728 1.008,3.528 1.008,5.4 0,2.016 -0.36,3.816 -1.008,5.544 -0.648,1.728 -1.512,3.168 -2.664,4.464 -1.152,1.296 -2.52,2.232 -4.032,2.952 -1.512,0.72 -3.096,1.08 -4.824,1.08 -1.728,0 -3.384,-0.36 -4.896,-1.08 -1.512,-0.72 -2.808,-1.656 -3.96,-2.952 -1.152,-1.224 -2.016,-2.664 -2.664,-4.392 -0.648,-1.656 -0.936,-3.456 -0.936,-5.472 z" stroke-width="0" stroke-linejoin="miter" stroke-miterlimit="2" fill="#cf3a00" stroke="#cf3a00" transform="translate(0 331.98400000000004) translate(353.8518312499999 28.00760000000001) scale(1.95) translate(-440.06075 38.232)"></path>
        <path id="path706393" style="font-style:normal;font-weight:500;font-size:72px;line-height:1;font-family:'Raleway Medium Alt1';font-variant-ligatures:none;text-align:center;text-anchor:middle" d="m 476.43875,-51.12 17.136,41.976 3.24,-7.416 -13.536,-34.56 z m 40.608,0 -16.848,42.984 -3.168,7.416 0.36,0.72 h 5.616 l 20.88,-51.12 z" stroke-width="0" stroke-linejoin="miter" stroke-miterlimit="2" fill="#cf3a00" stroke="#cf3a00" transform="translate(0 331.98400000000004) translate(430.63893125 2.8760000000000048) scale(1.95) translate(-476.43875 51.12)"></path>
        <path id="path706395" style="font-style:normal;font-weight:500;font-size:72px;line-height:1;font-family:'Raleway Medium Alt1';font-variant-ligatures:none;text-align:center;text-anchor:middle" d="m 541.26238,0.72 c 2.808,0 5.39999,-0.504 7.70399,-1.584 2.30401,-1.008 4.32001,-2.448 6.048,-4.248 1.65601,-1.728 2.952,-3.816 3.888,-6.192 0.86401,-2.304 1.36801,-4.824 1.36801,-7.416 0,-2.592 -0.504,-5.112 -1.44001,-7.488 -0.936,-2.304 -2.23199,-4.392 -3.888,-6.192 -1.65599,-1.728 -3.67199,-3.168 -5.976,-4.248 -2.376,-1.008 -4.968,-1.584 -7.70399,-1.584 -2.808,0 -5.4,0.576 -7.70401,1.584 -2.304,1.08 -4.31999,2.52 -5.976,4.248 -1.656,1.8 -2.952,3.888 -3.88799,6.192 -0.93601,2.376 -1.36801,4.896 -1.36801,7.488 0,2.592 0.432,5.112 1.36801,7.416 0.86399,2.376 2.15999,4.464 3.81599,6.192 1.65601,1.8 3.672,3.24 5.976,4.248 2.30401,1.08 4.89601,1.584 7.77601,1.584 z m -12.45601,-19.368 c 0,-1.944 0.28801,-3.744 0.93601,-5.472 0.64799,-1.728 1.51199,-3.168 2.664,-4.464 1.15199,-1.296 2.44799,-2.304 3.95999,-3.024 1.512,-0.72 3.168,-1.152 4.89601,-1.152 1.72799,0 3.312,0.36 4.82399,1.08 1.51201,0.72 2.88,1.728 4.03201,3.024 1.152,1.296 2.01599,2.736 2.66399,4.464 0.64801,1.728 1.00801,3.528 1.00801,5.4 0,2.016 -0.36,3.816 -1.00801,5.544 -0.648,1.728 -1.51199,3.168 -2.66399,4.464 -1.15201,1.296 -2.52,2.232 -4.03201,2.952 -1.51199,0.72 -3.096,1.08 -4.82399,1.08 -1.72801,0 -3.38401,-0.36 -4.89601,-1.08 -1.512,-0.72 -2.808,-1.656 -3.95999,-2.952 -1.15201,-1.224 -2.01601,-2.664 -2.664,-4.392 -0.648,-1.656 -0.93601,-3.456 -0.93601,-5.472 z" stroke-width="0" stroke-linejoin="miter" stroke-miterlimit="2" fill="#cf3a00" stroke="#cf3a00" transform="translate(0 331.98400000000004) translate(525.96979025 28.00760000000001) scale(1.95) translate(-522.32637 38.232)"></path>
        <path id="path706397" style="font-style:normal;font-weight:500;font-size:72px;line-height:1;font-family:'Raleway Medium Alt1';font-variant-ligatures:none;text-align:center;text-anchor:middle" d="m 565.49825,-18.864 c 0,2.664 0.432,5.184 1.368,7.56 0.936,2.376 2.232,4.464 3.96,6.192 1.656,1.8 3.672,3.24 6.048,4.248 2.304,1.08 4.896,1.584 7.776,1.584 1.872,0 3.6,-0.216 5.328,-0.72 1.728,-0.432 3.24,-1.08 4.68,-1.944 1.368,-0.792 2.592,-1.8 3.6,-2.952 1.008,-1.152 1.872,-2.376 2.448,-3.816 l -6.192,-1.872 c -0.288,0.864 -0.792,1.584 -1.44,2.304 -0.72,0.72 -1.512,1.296 -2.376,1.8 -0.864,0.576 -1.872,1.008 -2.952,1.296 -1.08,0.288 -2.16,0.432 -3.24,0.432 -1.728,0 -3.384,-0.36 -4.896,-1.08 -1.512,-0.72 -2.808,-1.656 -3.96,-2.952 -1.152,-1.296 -2.016,-2.808 -2.664,-4.536 -0.72,-1.728 -1.008,-3.528 -1.008,-5.544 0,-2.016 0.288,-3.816 0.936,-5.544 0.648,-1.656 1.512,-3.096 2.664,-4.392 1.08,-1.224 2.376,-2.16 3.96,-2.88 1.512,-0.72 3.168,-1.08 4.896,-1.08 2.088,0 4.032,0.504 5.76,1.512 1.728,1.008 3.024,2.376 4.032,4.104 l 6.192,-1.944 c -1.44,-2.736 -3.456,-4.968 -6.192,-6.624 -2.736,-1.656 -5.904,-2.52 -9.648,-2.52 -2.88,0 -5.544,0.576 -7.848,1.584 -2.304,1.008 -4.32,2.448 -5.976,4.176 -1.728,1.728 -3.024,3.816 -3.888,6.12 -0.936,2.376 -1.368,4.896 -1.368,7.488 z" stroke-width="0" stroke-linejoin="miter" stroke-miterlimit="2" fill="#cf3a00" stroke="#cf3a00" transform="translate(0 331.98400000000004) translate(616.0049562499999 28.00760000000001) scale(1.95) translate(-565.49825 38.232)"></path>
        <path id="path706399" style="font-style:normal;font-weight:500;font-size:72px;line-height:1;font-family:'Raleway Medium Alt1';font-variant-ligatures:none;text-align:center;text-anchor:middle" d="m 617.60375,0.72 c 2.88,0 5.616,-0.576 8.208,-1.728 2.592,-1.152 4.68,-2.88 6.408,-5.184 l 0.144,2.664 c 0.144,1.08 0.576,2.016 1.296,2.736 0.72,0.72 1.728,1.08 3.024,1.08 0.432,0 0.936,0 1.368,-0.072 0.432,0 0.936,-0.072 1.656,-0.216 v -5.472 c -1.368,0 -2.016,-0.792 -2.016,-2.304 v -15.336 c 0,-4.752 -1.44,-8.496 -4.176,-11.16 -2.736,-2.592 -6.624,-3.96 -11.52,-3.96 -4.896,0 -9.792,1.656 -14.616,4.896 l 2.088,4.104 c 4.176,-2.88 8.136,-4.392 11.952,-4.392 3.168,0 5.616,0.936 7.344,2.664 1.728,1.728 2.592,4.176 2.592,7.2 v 3.024 c -1.44,-0.576 -3.096,-1.008 -4.968,-1.368 -1.872,-0.288 -3.744,-0.504 -5.544,-0.504 -2.304,0 -4.464,0.288 -6.408,0.864 -1.944,0.576 -3.6,1.368 -5.04,2.376 -1.44,1.008 -2.52,2.232 -3.24,3.672 -0.792,1.44 -1.152,2.952 -1.152,4.68 0,1.728 0.288,3.24 0.936,4.68 0.648,1.44 1.512,2.664 2.664,3.672 1.152,1.08 2.448,1.944 4.032,2.52 1.512,0.576 3.168,0.864 4.968,0.864 z m 1.656,-4.752 c -1.152,0 -2.232,-0.144 -3.24,-0.576 -1.008,-0.36 -1.944,-0.864 -2.664,-1.584 -0.72,-0.648 -1.296,-1.44 -1.728,-2.376 -0.432,-0.864 -0.576,-1.872 -0.576,-2.952 0,-2.16 0.936,-3.888 2.952,-5.256 2.016,-1.296 4.608,-2.016 7.776,-2.016 3.312,0 6.48,0.648 9.576,1.8 v 5.544 c 0,1.008 -0.504,1.944 -1.368,2.808 -1.008,1.44 -2.52,2.52 -4.464,3.384 -1.944,0.864 -4.032,1.224 -6.264,1.224 z" stroke-width="0" stroke-linejoin="miter" stroke-miterlimit="2" fill="#cf3a00" stroke="#cf3a00" transform="translate(0 331.98400000000004) translate(698.89068125 28.00760000000001) scale(1.95) translate(-605.00375 38.232)"></path>
        <path id="path706401" style="font-style:normal;font-weight:500;font-size:72px;line-height:1;font-family:'Raleway Medium Alt1';font-variant-ligatures:none;text-align:center;text-anchor:middle" d="m 648.03725,-52.56 v 45.144 c 0,2.52 0.648,4.464 2.088,5.832 1.44,1.44 3.384,2.088 5.832,2.088 1.08,0 2.376,-0.144 3.816,-0.432 1.44,-0.288 2.664,-0.648 3.744,-1.08 l -1.008,-5.112 c -0.648,0.288 -1.296,0.504 -2.016,0.648 -0.72,0.144 -1.368,0.216 -1.872,0.216 -1.368,0 -2.448,-0.36 -3.168,-1.152 -0.72,-0.792 -1.08,-1.872 -1.08,-3.312 v -42.84 z" stroke-width="0" stroke-linejoin="miter" stroke-miterlimit="2" fill="#cf3a00" stroke="#cf3a00" transform="translate(0 331.98400000000004) translate(788.6560062500001 0.06799999999999784) scale(1.95) translate(-648.03725 52.56)"></path>
        <path id="path706403" style="font-style:normal;font-weight:500;font-size:72px;line-height:1;font-family:'Raleway Medium Alt1';font-variant-ligatures:none;text-align:center;text-anchor:middle" d="m 668.5685,-52.56 v 45.144 c 0,2.52 0.648,4.464 2.088,5.832 1.44,1.44 3.384,2.088 5.832,2.088 1.08,0 2.376,-0.144 3.816,-0.432 1.44,-0.288 2.664,-0.648 3.744,-1.08 l -1.008,-5.112 c -0.648,0.288 -1.296,0.504 -2.016,0.648 -0.72,0.144 -1.368,0.216 -1.872,0.216 -1.368,0 -2.448,-0.36 -3.168,-1.152 -0.72,-0.792 -1.08,-1.872 -1.08,-3.312 v -42.84 z" stroke-width="0" stroke-linejoin="miter" stroke-miterlimit="2" fill="#cf3a00" stroke="#cf3a00" transform="translate(0 331.98400000000004) translate(834.5419437500001 0.06799999999999784) scale(1.95) translate(-668.5685 52.56)"></path>
      </g>
      <image xlink:href="" id="icon" x="0" y="0" style="display: none;"></image>
    </g>
  </g>
</svg>